<svg viewBox="0 0 609 1115" fill="none" xmlns="http://www.w3.org/2000/svg">
<text  x="50%" y="10%" fill="black" font-size="40" text-anchor="middle">Front-Body</text>
<path d="M42 41H566.5V39H42V41ZM567.5 42V1073H569.5V42H567.5ZM566.5 1074H42V1076H566.5V1074ZM41 1073V42H39V1073H41ZM42 1074C41.4477 1074 41 1073.55 41 1073H39C39 1074.66 40.3431 1076 42 1076V1074ZM567.5 1073C567.5 1073.55 567.052 1074 566.5 1074V1076C568.157 1076 569.5 1074.66 569.5 1073H567.5ZM566.5 41C567.052 41 567.5 41.4477 567.5 42H569.5C569.5 40.3431 568.157 39 566.5 39V41ZM42 39C40.3431 39 39 40.3432 39 42H41C41 41.4477 41.4477 41 42 41V39Z" fill="black" fill-opacity="0.1"/>
<path d="M323.5 147L304.5 141.5L303 140L273 159L269 176V190.5H262V198.5L264 206L267 213.5L275 219L279.5 242.5L277.5 256.5L220 293.5L198 320.5L200 356.5L194 417L183 455L178.5 555.5L152 586.5L140 599.5L150.5 602.5L164 586V636L167.5 641L171.5 639.5V647L179 648.5L182 636V644.5H188L192 624.5L194 633.5H199.5L207 599.5V548.5L231 473.5V442.5L235.5 411L241.5 356.5L246.5 414L241.5 482L232.5 548.5L230.5 615L246.5 703.5L245 814.5L267.5 895L271.5 926.5L272.5 947.5L267.5 962.5L266.5 975H310.5V970L306.5 952L303.5 926L296.5 890L299 834.5L300 796.5L296.5 783.5V756L302.5 673L307 578.5L310 581L312.5 578.5V673L318 756L306.5 796.5L309 835.5L310.5 908L306.5 936.5L314 961.5L326.5 973H360V966.5L338.5 939V926V913L360 823L365.5 722L373 700L391 609.5L386 550.5L373.5 494.5L372 442.5L386 356.5L380 411L386 473.5L405 554L403.5 593.5L407.5 616.5L410.5 632H415.5L417 620.5L419.5 641L421.5 644.5H425L428 641V648.5H433L436.5 639.5L440 641L445.5 638V584L459 601L468.5 602.5V597.5L457 586V577L433 554L431.5 456.5L424 432L418 315.5L401.5 293.5L337 249.5V219L344.5 213.5L348 206L350 198.5L348 190.5H342V176L338.5 159L323.5 147Z" fill="#F1AAAA" stroke="black"/>
<path class= "hover" id="chest" fill-rule="evenodd" clip-rule="evenodd" d="M290.095 306.5H262.376C257.462 306.5 253.276 310.07 252.501 314.923L249.625 332.932C249.451 334.025 249.459 335.138 249.649 336.228L253.133 356.201C253.589 358.819 255.07 361.148 257.247 362.673L265.781 368.651C267.906 370.138 270.525 370.743 273.086 370.336L289.726 367.694C290.909 367.507 292.049 367.108 293.091 366.517L300.112 362.536C302.628 361.11 304.403 358.664 304.979 355.831L306.794 346.914C307.069 345.563 307.061 344.17 306.772 342.822L304.072 330.231L299.762 313.942C298.602 309.556 294.633 306.5 290.095 306.5ZM332.847 306.5H360.566C365.48 306.5 369.666 310.07 370.44 314.923L373.316 332.932C373.491 334.025 373.483 335.138 373.293 336.228L369.809 356.201C369.352 358.819 367.872 361.148 365.694 362.673L357.16 368.651C355.036 370.138 352.417 370.743 349.855 370.336L333.215 367.694C332.032 367.507 330.893 367.108 329.851 366.517L322.829 362.536C320.314 361.11 318.539 358.664 317.962 355.831L316.148 346.914C315.873 345.563 315.88 344.17 316.169 342.822L318.87 330.231L323.179 313.942C324.34 309.556 328.309 306.5 332.847 306.5Z" fill="#EE2727"/>
<g id="abdome" class="hover">
<path d="M307 397.5L272.5 411L272 398L273.5 391.5L276.5 386.5L282.5 382.5L295 377.5L302.5 374.5L307 376L308.5 382.5V393L307 397.5Z" fill="#EE2727"/>
<path d="M313.5 396L315 374.5H324.5L329.5 376L334.5 377.5L342.5 380L344.5 381.5L347.5 389L349 393V400V412.5L346.5 416.5L341 414L327.5 405L313.5 396Z" fill="#EE2727"/>
<path d="M281.5 409L272.5 416.5L271 421V429.5H305.5L307 427L308.5 418.5V404L292.5 405L281.5 409Z" fill="#EE2727"/>
<path d="M311.5 409L313.5 404L324.5 409L329 411.5L334.5 414L341 418.5L346 421.5L346.5 427V434.5H341L330 432.5L320 430.5L310.5 428.5L311.5 409Z" fill="#EE2727"/>
<path d="M304.5 431.5L271 432.5L270 434.5V443V453L275 459H283H294.5H304.5L307.5 456.5V435.5L304.5 431.5Z" fill="#EE2727"/>
<path d="M323 433H312V439.5L311.5 447V451L313.5 455L316 459H321.5H326.5H331.5H342.5L344.5 456.5L344 440L341 439.5L334.5 437.5L329 435.5L323 433Z" fill="#EE2727"/>
<path d="M304.5 463H276.5H275V472L278 483.5C279 487.5 281.1 495.1 281.5 493.5C281.9 491.9 285 502.833 286.5 508.5L289.5 521L295 536.5L301 553L304.5 562L309 562.5L315 563L320.5 562L322.5 559L326.5 548.5L332 536L336.5 523L340 511.5L342.5 501L344 491.5L344.5 484.5V475.5L342.5 469.5L340 463H333.5H325.5H319L317.5 465.5L315 468H308.5H305.5L304.5 463Z" fill="#EE2727"/>
<path d="M263 386.5L254 389L249.5 396L252 400H258.5H265.5L269.5 397.5V388L263 386.5Z" fill="#EE2727"/>
<path d="M261 401H249L247 406.5L249 411L252 412.5L258.5 416.5H263L267.5 414V406.5L265.5 401H261Z" fill="#EE2727"/>
<path d="M247 412.5L255 416L263 418.5L265.5 421.5L264.5 425V427V430.5V434.5V437.5H261L258.5 439.5L259 441L263 447L264.5 453L265.5 456.5L264.5 459L260.5 462L261 463L267.5 469.5V475.5L271 483.5L270 491.5L271 501L269.5 508.5L260.5 501L252 493.5L244.5 490L242 486L244.5 451L247 428.5V412.5Z" fill="#EE2727"/>
<path d="M354.5 384L364 386.5L370.5 389L375 388L378 384V388L375 391.5L370.5 397.5L370.1 398L372.5 402L375 404V406.5V411L372.5 414L373.5 418.5V424L370.5 429.5V437.5L367.5 445.5V462L367.135 462.122L370.5 490L367.5 493.5L364 498L360 502.5L359 507.5L354.5 508.5L352 507.5L351 504L349 469.5L355.5 463.5L351 463V453L357.5 445.5H352.5V441V430.5L357.5 425H352.5V418.5L354.5 411.5L357.5 402L354.5 396V384Z" fill="#EE2727"/>
<path d="M258.5 439.5L261 437.5H264.5V434.5V430.5V427V425L265.5 421.5L263 418.5L255 416L247 412.5V428.5M258.5 439.5L254 437.5L249 432.5L247 428.5M258.5 439.5L259 441L263 447L264.5 453L265.5 456.5L264.5 459L260.5 462M247 428.5L244.5 451M260.5 462L254 459L249 455L244.5 451M260.5 462L261 463L267.5 469.5V475.5L271 483.5L270 491.5L271 501L269.5 508.5L260.5 501L252 493.5L244.5 490L242 486L244.5 451M357.5 402L361.5 401L368.5 400L370.1 398M357.5 402L354.5 396V384L364 386.5L370.5 389L375 388L378 384V388L375 391.5L370.5 397.5L370.1 398M357.5 402L354.5 411.5L352.5 418.5V425H357.5M357.5 425L363 421L367.5 419L370.5 416L372.5 414M357.5 425L352.5 430.5V441V445.5H357.5M372.5 414L375 411V406.5V404L372.5 402L370.1 398M372.5 414L373.5 418.5V424L370.5 429.5V437.5M357.5 445.5L364 441L370.5 437.5M357.5 445.5L351 453V463L355.5 463.5M370.5 437.5L367.5 445.5V462L363 463.5H355.5M355.5 463.5L349 469.5L351 504L352 507.5L354.5 508.5L359 507.5L360 502.5L364 498L367.5 493.5L370.5 490L367 461M272.5 411L307 397.5L308.5 393V382.5L307 376L302.5 374.5L295 377.5L282.5 382.5L276.5 386.5L273.5 391.5L272 398L272.5 411ZM315 374.5L313.5 396L327.5 405L341 414L346.5 416.5L349 412.5V400V393L347.5 389L344.5 381.5L342.5 380L334.5 377.5L329.5 376L324.5 374.5H315ZM272.5 416.5L281.5 409L292.5 405L308.5 404V418.5L307 427L305.5 429.5H271V421L272.5 416.5ZM313.5 404L311.5 409L310.5 428.5L320 430.5L330 432.5L341 434.5H346.5V427L346 421.5L341 418.5L334.5 414L329 411.5L324.5 409L313.5 404ZM271 432.5L304.5 431.5L307.5 435.5V456.5L304.5 459H294.5H283H275L270 453V443V434.5L271 432.5ZM312 433H323L329 435.5L334.5 437.5L341 439.5L344 440L344.5 456.5L342.5 459H331.5H326.5H321.5H316L313.5 455L311.5 451V447L312 439.5V433ZM276.5 463H304.5L305.5 468H308.5H315L317.5 465.5L319 463H325.5H333.5H340L342.5 469.5L344.5 475.5V484.5L344 491.5L342.5 501L340 511.5L336.5 523L332 536L326.5 548.5L322.5 559L320.5 562L315 563L309 562.5L304.5 562L301 553L295 536.5L289.5 521L286.5 508.5C285 502.833 281.9 491.9 281.5 493.5C281.1 495.1 279 487.5 278 483.5L275 472V463H276.5ZM254 389L263 386.5L269.5 388V397.5L265.5 400H258.5H252L249.5 396L254 389ZM249 401H261H265.5L267.5 406.5V414L263 416.5H258.5L252 412.5L249 411L247 406.5L249 401Z" stroke="black"/>
</g>
<g id="biceps" class="hover"> 
<path d="M224 439L202.5 459.5L197.5 455.5V439V425L202.5 402.5L214.5 383.5L230 362.5L241 344.5V380L238 415.5L224 439Z" fill="#EE2727"/>
<path d="M412 393.5L390.5 360L382.5 419L395.5 443L404.5 452L414.5 459.5L422.5 443L420 425L412 393.5Z" fill="#EE2727"/>
<path d="M224 439L202.5 459.5L197.5 455.5V439V425L202.5 402.5L214.5 383.5L230 362.5L241 344.5V380L238 415.5L224 439Z" stroke="black"/>
<path d="M412 393.5L390.5 360L382.5 419L395.5 443L404.5 452L414.5 459.5L422.5 443L420 425L412 393.5Z" stroke="black"/>
</g>
<g id="shoulders" class="hover">
<path d="M207.5 316.003L223.87 297.5L247.463 300.584L244.093 321.731L238.315 330.101L230.13 343.759L207.5 360.5V336.269V316.003Z" fill="#EE2727"/>
<path d="M399.13 297.5H373.611V305.43L376.981 319.528L380.352 330.101L383.722 336.269L389.019 341.115L395.278 347.283L402.019 353.01L415.5 356.094V343.759V321.731L410.685 310.717L399.13 297.5Z" fill="#EE2727"/>
<path d="M207.5 316.003L223.87 297.5L247.463 300.584L244.093 321.731L238.315 330.101L230.13 343.759L207.5 360.5V336.269V316.003Z" stroke="black"/>
<path d="M399.13 297.5H373.611V305.43L376.981 319.528L380.352 330.101L383.722 336.269L389.019 341.115L395.278 347.283L402.019 353.01L415.5 356.094V343.759V321.731L410.685 310.717L399.13 297.5Z" stroke="black"/>
</g>
<g id="front-leg" class="hover">
<path d="M272.045 533.147L244.955 513.5V523.323L240.678 533.147V555.132L236.876 574.311L234.5 590.683V608.926V622.024L236.876 636.993L240.678 652.429V672.076L244.955 690.787L249.233 712.772V724.467L253.51 731.951L261.114 735.226L272.045 738.5H279.649L289.629 735.226L294.381 731.951V712.772V685.641L297.233 663.188V650.09L301.035 625.766V608.926V595.361L297.233 585.07L289.629 568.698L279.649 548.583L272.045 533.147Z" fill="#E92B2B"/>
<path d="M368.995 533.147L365.193 513.5L357.114 523.323L350.46 533.147L344.282 541.567L336.203 553.729L330.975 565.423L325.272 571.036V579.924L320.045 590.683V608.926V622.024V632.315L317.668 640.267V650.09V663.188L316.243 680.964L314.342 696.4L312.441 709.966L314.342 721.192L317.668 726.806L325.272 731.951H334.302H344.282L350.46 726.806L357.114 721.192L362.342 709.966L365.193 696.4L368.995 682.835L372.797 666.463L375.173 652.429L378.5 644.009V632.315V618.282V602.377V585.07L375.173 568.698L372.797 552.793L368.995 533.147Z" fill="#E92B2B"/>
<path d="M272.045 533.147L244.955 513.5V523.323L240.678 533.147V555.132L236.876 574.311L234.5 590.683V608.926V622.024L236.876 636.993L240.678 652.429V672.076L244.955 690.787L249.233 712.772V724.467L253.51 731.951L261.114 735.226L272.045 738.5H279.649L289.629 735.226L294.381 731.951V712.772V685.641L297.233 663.188V650.09L301.035 625.766V608.926V595.361L297.233 585.07L289.629 568.698L279.649 548.583L272.045 533.147Z" stroke="black"/>
<path d="M368.995 533.147L365.193 513.5L357.114 523.323L350.46 533.147L344.282 541.567L336.203 553.729L330.975 565.423L325.272 571.036V579.924L320.045 590.683V608.926V622.024V632.315L317.668 640.267V650.09V663.188L316.243 680.964L314.342 696.4L312.441 709.966L314.342 721.192L317.668 726.806L325.272 731.951H334.302H344.282L350.46 726.806L357.114 721.192L362.342 709.966L365.193 696.4L368.995 682.835L372.797 666.463L375.173 652.429L378.5 644.009V632.315V618.282V602.377V585.07L375.173 568.698L372.797 552.793L368.995 533.147Z" stroke="black"/>
</g>


<text  x="50%" y="91.5%" fill="black" font-size="40" text-anchor="middle" id="muscle-name"></text>
</svg>
