<svg id="svg" width="609" height="1107" viewBox="0 0 609 1107" fill="none" xmlns="http://www.w3.org/2000/svg">
<path d="M42 41.5H566.5V39.5H42V41.5ZM567.5 42.5V1065H569.5V42.5H567.5ZM566.5 1066H42V1068H566.5V1066ZM41 1065V42.5H39V1065H41ZM42 1066C41.4477 1066 41 1065.55 41 1065H39C39 1066.66 40.3431 1068 42 1068V1066ZM567.5 1065C567.5 1065.55 567.052 1066 566.5 1066V1068C568.157 1068 569.5 1066.66 569.5 1065H567.5ZM566.5 41.5C567.052 41.5 567.5 41.9477 567.5 42.5H569.5C569.5 40.8431 568.157 39.5 566.5 39.5V41.5ZM42 39.5C40.3432 39.5 39 40.8431 39 42.5H41C41 41.9477 41.4477 41.5 42 41.5V39.5Z" fill="black" fill-opacity="0.1"/>
<path d="M305.5 140.5L334.5 152L341.5 189H347V205L341.5 216.5H336L333 233.5V253.5L391 294.5L408.5 311L415 340.5L416.5 376L420 420L428.5 446L430 495.5L428.5 525L430 552.5L454.5 572L457 582L468.5 595V601L457 598L445.5 582L447 638L439.5 639.5L438 648L430.5 647L428.5 642H423.5L418.5 624.5L416 631H411L404.5 598L403 551L384 481L377.5 420C375.629 410.491 372.097 392.351 371.975 391.025L370.5 392.5L365 416.5L368.5 465.5L374 513L377.5 545.5L382 601L374 642L365 688L362 729L366.5 803L356 859.5L345.5 888L339.5 920L338 947L343.5 958.5V964.5H313L309.5 961L308 926L315.5 888L313 840.5V783L318 758.5L309 716.5V656L304 607.5L302 585V614L300 648V686.5L296.5 746L295 755L303.5 796L305.5 830L301.5 867.5L300 899.5L306 927V940.5L308 961L303.5 967L248.5 964.5V956.5L273.5 935L267.5 881.5L252.5 824L249 746L242.5 705L229.5 667.5L224 624.5V564.5L231 511L239 484L242 442L235.5 416.5V418L229.5 440L224.5 485L207 548.5V593L201.5 626L199.5 631L195 629.5L193.5 624.5L191 639.5L189.5 642H185.5V631L181 647H176V639.5H168.5L165.5 583.5L149.5 601L140 598L154 577.5L177.5 552.5L182 451L191 425.5L194 364L192.5 325.5L205 300.5L274 253.5L276 231.5L274 216.5H268L263.5 205V189H268V167L279.5 149L305.5 140.5Z" fill="#F1AAAA"/>
<path d="M372 391C371.6 389.8 375.5 409.833 377.5 420L384 481L403 551L404.5 598L411 631H416L418.5 624.5L423.5 642H428.5L430.5 647L438 648L439.5 639.5L447 638L445.5 582L457 598L468.5 601V595L457 582L454.5 572L430 552.5L428.5 525L430 495.5L428.5 446L420 420L416.5 376L415 340.5L408.5 311L391 294.5L333 253.5V233.5L336 216.5H341.5L347 205V189H341.5L334.5 152L305.5 140.5L279.5 149L268 167V189H263.5V205L268 216.5H274L276 231.5L274 253.5L205 300.5L192.5 325.5L194 364L191 425.5L182 451L177.5 552.5L154 577.5L140 598L149.5 601L165.5 583.5L168.5 639.5H176V647H181L185.5 631V642H189.5L191 639.5L193.5 624.5L195 629.5L199.5 631L201.5 626L207 593V548.5L224.5 485L229.5 440L235.5 418V416.5M372 391C372.4 392.2 372.167 373.5 372 364L370.5 392.5M372 391L370.5 392.5M370.5 392.5L365 416.5L368.5 465.5L374 513L377.5 545.5L382 601L374 642L365 688L362 729L366.5 803L356 859.5L345.5 888L339.5 920L338 947L343.5 958.5V964.5H313L309.5 961L308 926L315.5 888L313 840.5V783L318 758.5L309 716.5V656L304 607.5L302 585V614L300 648V686.5L296.5 746L295 755L303.5 796L305.5 830L301.5 867.5L300 899.5L306 927V940.5L308 961L303.5 967L248.5 964.5V956.5L273.5 935L267.5 881.5L252.5 824L249 746L242.5 705L229.5 667.5L224 624.5V564.5L231 511L239 484L242 442L235.5 416.5M235.5 416.5V360.5" stroke="black"/>
<g id="glutes" class="hover">
<path d="M291.5 518L248 491L239 518V532V547L242 567L248 579L254 587.5L267.5 590.5H280.5L291.5 587.5L300 581.5L303.5 574L306 559.5V545L300 529.5L291.5 518Z" fill="#EE2727" />
<path d="M334.5 512.5L365 488L368.5 494V527.5L370 545V559.5L365 570L361 584.5L352.5 590.5H342.5H326.5L309 584.5L306 574L309 550L319 537L326.5 525L334.5 512.5Z" fill="#EE2727" />
<path d="M291.5 518L248 491L239 518V532V547L242 567L248 579L254 587.5L267.5 590.5H280.5L291.5 587.5L300 581.5L303.5 574L306 559.5V545L300 529.5L291.5 518Z" stroke="black"/>
<path d="M334.5 512.5L365 488L368.5 494V527.5L370 545V559.5L365 570L361 584.5L352.5 590.5H342.5H326.5L309 584.5L306 574L309 550L319 537L326.5 525L334.5 512.5Z" stroke="black"/>
</g>
<g id= "legs-back" class="hover">
<path d="M230.5 632.5L233 580.5L238 587L241.5 601L244 624.5L248.5 613.5L254 601L261 596.5H277L292.5 593L295 601V613.5L298 632.5V657L295 676.5V701V718V735.5L290 754L280.5 739.5L265.5 735.5L251 731L248.5 707.5L241.5 688.5L235.5 667L230.5 632.5Z" fill="#EE2727" />
<path d="M314 593L305.5 584.5V606.5L310.5 618.5V635.5V650L314 667L310.5 688.5V701L316 734L321.5 750.5L331 737.5L341.5 735.5H351.5L358.5 727V722V701L362 685L364.5 667L367.5 654.5L371.5 639L375 618.5L377 611.5L378.5 596.5L375 580.5L371.5 596.5L367.5 618.5L364.5 606.5L358.5 596.5H329.5L314 593Z" fill="#EE2727" />
<path d="M230.5 632.5L233 580.5L238 587L241.5 601L244 624.5L248.5 613.5L254 601L261 596.5H277L292.5 593L295 601V613.5L298 632.5V657L295 676.5V701V718V735.5L290 754L280.5 739.5L265.5 735.5L251 731L248.5 707.5L241.5 688.5L235.5 667L230.5 632.5Z" stroke="black"/>
<path d="M314 593L305.5 584.5V606.5L310.5 618.5V635.5V650L314 667L310.5 688.5V701L316 734L321.5 750.5L331 737.5L341.5 735.5H351.5L358.5 727V722V701L362 685L364.5 667L367.5 654.5L371.5 639L375 618.5L377 611.5L378.5 596.5L375 580.5L371.5 596.5L367.5 618.5L364.5 606.5L358.5 596.5H329.5L314 593Z" stroke="black"/>
</g>
<g id="outer-back" class="hover">
<path d="M260.5 307L237 314L232 325.5L237 338L241 352V367.5V385V401.5L244 417L247 428V443.5V459.5V472.5V489L255 491.5L270 498L275 494V484V472.5L277.5 459.5L283 452V443.5L287.5 435.5H295.5L298.5 428L295.5 420L287.5 406L277.5 390L263 360V331.5L260.5 307Z" fill="#EE2727" />
<path d="M348 314L351.5 307L369 310.5L381 314V320V328.5L378.5 343L375 352L371.5 363.5V369.5L370.5 379.5V388L369 398L365.5 406V413.5L363 420V428V443.5L365.5 452L367 461.5L369 472.5V484L365.5 489L363 494H357H351.5L345.5 491.5V479.5V466.5L342.5 456L339.5 448L331 443.5L328.5 435.5L315.5 428V420L321 406V398L328.5 390L335.5 379.5L339.5 373L342.5 367.5L345.5 360V343V325.5L348 314Z" fill="#EE2727" />
<path d="M260.5 307L237 314L232 325.5L237 338L241 352V367.5V385V401.5L244 417L247 428V443.5V459.5V472.5V489L255 491.5L270 498L275 494V484V472.5L277.5 459.5L283 452V443.5L287.5 435.5H295.5L298.5 428L295.5 420L287.5 406L277.5 390L263 360V331.5L260.5 307Z" stroke="black"/>
<path d="M348 314L351.5 307L369 310.5L381 314V320V328.5L378.5 343L375 352L371.5 363.5V369.5L370.5 379.5V388L369 398L365.5 406V413.5L363 420V428V443.5L365.5 452L367 461.5L369 472.5V484L365.5 489L363 494H357H351.5L345.5 491.5V479.5V466.5L342.5 456L339.5 448L331 443.5L328.5 435.5L315.5 428V420L321 406V398L328.5 390L335.5 379.5L339.5 373L342.5 367.5L345.5 360V343V325.5L348 314Z" stroke="black"/>
</g>
<g  id="inner-back" class="hover">
<path d="M278 316.5V298H282.5L291 307L293.5 316.5V332.5V350.5V372.5V388.5L291 404.5L285 394.5L278 385.5L270.5 367.5L267 353.5V342L272.5 326L278 316.5Z" fill="#EE2727" />
<path d="M317 311.5V298L328.5 307L332.5 323L340 337V346V353.5V364L337 367.5L332.5 376.5L328.5 385.5L321.5 391L317 402L311.5 406L313.5 394.5V382V364V350.5L317 329V311.5Z" fill="#EE2727" />
<path d="M278 316.5V298H282.5L291 307L293.5 316.5V332.5V350.5V372.5V388.5L291 404.5L285 394.5L278 385.5L270.5 367.5L267 353.5V342L272.5 326L278 316.5Z" stroke="black"/>
<path d="M317 311.5V298L328.5 307L332.5 323L340 337V346V353.5V364L337 367.5L332.5 376.5L328.5 385.5L321.5 391L317 402L311.5 406L313.5 394.5V382V364V350.5L317 329V311.5Z" stroke="black"/>
</g>
<g id="calfs" class="hover">
<path d="M293 842.5L286 826L281.5 833L278.5 842.5L271.5 845.5H263H259V833L255 799.5V771L253 757.5L255 742.5L259 739L263 742.5L271.5 750L278.5 756L281.5 750L289.5 761.5L293 771L299 788V799.5L303 813.5V826V842.5L299 849.5L293 842.5Z" fill="#EE2727" />
<path d="M345.5 839.5L342.5 826L334 835.5L328.5 845.5L323 849.5H317.5V839.5V831L320 818.5V807V795V783L323 771L328.5 761.5L334 750L338.5 742.5L345.5 753L353 747L357 742.5V750V765L360 778L361.5 791.5V804V818.5V831L360 842.5L353 845.5L345.5 839.5Z" fill="#EE2727" />
<path d="M293 842.5L286 826L281.5 833L278.5 842.5L271.5 845.5H263H259V833L255 799.5V771L253 757.5L255 742.5L259 739L263 742.5L271.5 750L278.5 756L281.5 750L289.5 761.5L293 771L299 788V799.5L303 813.5V826V842.5L299 849.5L293 842.5Z" stroke="black"/>
<path d="M345.5 839.5L342.5 826L334 835.5L328.5 845.5L323 849.5H317.5V839.5V831L320 818.5V807V795V783L323 771L328.5 761.5L334 750L338.5 742.5L345.5 753L353 747L357 742.5V750V765L360 778L361.5 791.5V804V818.5V831L360 842.5L353 845.5L345.5 839.5Z" stroke="black"/>
</g>
<g id="triceps" class="hover">
<path d="M197.5 349L202.5 337H205.5L210.5 343L214 346.5L222 349L229.5 359.5L234.5 363V366.5V372L232 382V398.5V413V421L229.5 430.5L226.5 443.5V455L222 458.5V463.5H218.5V456L216.5 450V443.5V433.5L214 425V415.5V408L210.5 405H205.5V415.5L202.5 425V436V447V455L197.5 450L194 433.5V421V408V390V378.5V372L197.5 359.5V349Z" fill="#EE2727" />
<path d="M405 339.5H393L381 346.5L376 352L374.5 363V378.5V392L376 402L378.5 415.5L381 430.5V443.5L383.5 455L389.5 466.5V458.5L393 450L394 436V423L393 410.5V402L398.5 398.5L401 405L405 410.5V421V433.5V443.5V455L413 447L416 436V425V418V408V394L413 375L408 363V352L405 339.5Z" fill="#EE2727" />
<path d="M197.5 349L202.5 337H205.5L210.5 343L214 346.5L222 349L229.5 359.5L234.5 363V366.5V372L232 382V398.5V413V421L229.5 430.5L226.5 443.5V455L222 458.5V463.5H218.5V456L216.5 450V443.5V433.5L214 425V415.5V408L210.5 405H205.5V415.5L202.5 425V436V447V455L197.5 450L194 433.5V421V408V390V378.5V372L197.5 359.5V349Z" stroke="black"/>
<path d="M405 339.5H393L381 346.5L376 352L374.5 363V378.5V392L376 402L378.5 415.5L381 430.5V443.5L383.5 455L389.5 466.5V458.5L393 450L394 436V423L393 410.5V402L398.5 398.5L401 405L405 410.5V421V433.5V443.5V455L413 447L416 436V425V418V408V394L413 375L408 363V352L405 339.5Z" stroke="black"/>
</g>
<rect x="40" y="4.5" width="68.0703" height="30" rx="3" fill="white"/>
<rect x="40.5" y="5" width="67.0703" height="29" rx="2.5" stroke="black" stroke-opacity="0.2"/>
<path d="M46.9688 22.5V14.5H47.8906V17.4531H47.9688C48.0365 17.349 48.1302 17.2161 48.25 17.0547C48.3724 16.8906 48.5469 16.7448 48.7734 16.6172C49.0026 16.487 49.3125 16.4219 49.7031 16.4219C50.2083 16.4219 50.6536 16.5482 51.0391 16.8008C51.4245 17.0534 51.7253 17.4115 51.9414 17.875C52.1576 18.3385 52.2656 18.8854 52.2656 19.5156C52.2656 20.151 52.1576 20.7018 51.9414 21.168C51.7253 21.6315 51.4258 21.9909 51.043 22.2461C50.6602 22.4987 50.2188 22.625 49.7188 22.625C49.3333 22.625 49.0247 22.5612 48.793 22.4336C48.5612 22.3034 48.3828 22.1562 48.2578 21.9922C48.1328 21.8255 48.0365 21.6875 47.9688 21.5781H47.8594V22.5H46.9688ZM47.875 19.5C47.875 19.9531 47.9414 20.3529 48.0742 20.6992C48.207 21.043 48.401 21.3125 48.6563 21.5078C48.9115 21.7005 49.224 21.7969 49.5938 21.7969C49.9792 21.7969 50.3008 21.6953 50.5586 21.4922C50.819 21.2865 51.0143 21.0104 51.1445 20.6641C51.2773 20.3151 51.3438 19.9271 51.3438 19.5C51.3438 19.0781 51.2786 18.6979 51.1484 18.3594C51.0208 18.0182 50.8268 17.7487 50.5664 17.5508C50.3086 17.3503 49.9844 17.25 49.5938 17.25C49.2188 17.25 48.9036 17.3451 48.6484 17.5352C48.3932 17.7227 48.2005 17.9857 48.0703 18.3242C47.9401 18.6602 47.875 19.0521 47.875 19.5ZM55.4414 22.6406C55.0612 22.6406 54.7161 22.569 54.4063 22.4258C54.0964 22.2799 53.8503 22.0703 53.668 21.7969C53.4857 21.5208 53.3945 21.1875 53.3945 20.7969C53.3945 20.4531 53.4622 20.1745 53.5977 19.9609C53.7331 19.7448 53.9141 19.5755 54.1406 19.4531C54.3672 19.3307 54.6172 19.2396 54.8906 19.1797C55.1667 19.1172 55.444 19.0677 55.7227 19.0313C56.0872 18.9844 56.3828 18.9492 56.6094 18.9258C56.8385 18.8997 57.0052 18.8568 57.1094 18.7969C57.2161 18.737 57.2695 18.6328 57.2695 18.4844V18.4531C57.2695 18.0677 57.1641 17.7682 56.9531 17.5547C56.7448 17.3411 56.4284 17.2344 56.0039 17.2344C55.5638 17.2344 55.2188 17.3307 54.9688 17.5234C54.7188 17.7161 54.543 17.9219 54.4414 18.1406L53.5664 17.8281C53.7227 17.4635 53.931 17.1797 54.1914 16.9766C54.4544 16.7708 54.7409 16.6276 55.0508 16.5469C55.3633 16.4635 55.6706 16.4219 55.9727 16.4219C56.1654 16.4219 56.3867 16.4453 56.6367 16.4922C56.8893 16.5365 57.1328 16.6289 57.3672 16.7695C57.6042 16.9102 57.8008 17.1224 57.957 17.4062C58.1133 17.6901 58.1914 18.0703 58.1914 18.5469V22.5H57.2695V21.6875H57.2227C57.1602 21.8177 57.056 21.957 56.9102 22.1055C56.7643 22.2539 56.5703 22.3802 56.3281 22.4844C56.0859 22.5885 55.7904 22.6406 55.4414 22.6406ZM55.582 21.8125C55.9466 21.8125 56.2539 21.7409 56.5039 21.5977C56.7565 21.4544 56.9466 21.2695 57.0742 21.043C57.2044 20.8164 57.2695 20.5781 57.2695 20.3281V19.4844C57.2305 19.5312 57.1445 19.5742 57.0117 19.6133C56.8815 19.6497 56.7305 19.6823 56.5586 19.7109C56.3893 19.737 56.224 19.7604 56.0625 19.7812C55.9036 19.7995 55.7747 19.8151 55.6758 19.8281C55.4362 19.8594 55.2122 19.9102 55.0039 19.9805C54.7982 20.0482 54.6315 20.151 54.5039 20.2891C54.3789 20.4245 54.3164 20.6094 54.3164 20.8437C54.3164 21.1641 54.4349 21.4062 54.6719 21.5703C54.9115 21.7318 55.2148 21.8125 55.582 21.8125ZM62.3115 22.625C61.749 22.625 61.2646 22.4922 60.8584 22.2266C60.4521 21.9609 60.1396 21.5951 59.9209 21.1289C59.7021 20.6628 59.5928 20.1302 59.5928 19.5312C59.5928 18.9219 59.7048 18.3841 59.9287 17.918C60.1553 17.4492 60.4704 17.0833 60.874 16.8203C61.2803 16.5547 61.7542 16.4219 62.2959 16.4219C62.7178 16.4219 63.098 16.5 63.4365 16.6562C63.7751 16.8125 64.0524 17.0312 64.2686 17.3125C64.4847 17.5937 64.6188 17.9219 64.6709 18.2969H63.749C63.6787 18.0234 63.5225 17.7812 63.2803 17.5703C63.0407 17.3568 62.7178 17.25 62.3115 17.25C61.9521 17.25 61.637 17.3437 61.3662 17.5312C61.098 17.7161 60.8883 17.9779 60.7373 18.3164C60.5889 18.6523 60.5146 19.0469 60.5146 19.5C60.5146 19.9635 60.5876 20.3672 60.7334 20.7109C60.8818 21.0547 61.0902 21.3216 61.3584 21.5117C61.6292 21.7018 61.9469 21.7969 62.3115 21.7969C62.5511 21.7969 62.7686 21.7552 62.9639 21.6719C63.1592 21.5885 63.3245 21.4688 63.46 21.3125C63.5954 21.1562 63.6917 20.9687 63.749 20.75H64.6709C64.6188 21.1042 64.4899 21.4232 64.2842 21.707C64.0811 21.9883 63.8115 22.2122 63.4756 22.3789C63.1423 22.543 62.7542 22.625 62.3115 22.625ZM66.8779 20.3125L66.8623 19.1719H67.0498L69.6748 16.5H70.8154L68.0186 19.3281H67.9404L66.8779 20.3125ZM66.0186 22.5V14.5H66.9404V22.5H66.0186ZM69.8311 22.5L67.4873 19.5312L68.1436 18.8906L71.0029 22.5H69.8311ZM74.9346 18.6406V19.5H71.4346V18.6406H74.9346ZM76.6816 22.5V14.5H77.6035V17.4531H77.6816C77.7493 17.349 77.8431 17.2161 77.9629 17.0547C78.0853 16.8906 78.2598 16.7448 78.4863 16.6172C78.7155 16.487 79.0254 16.4219 79.416 16.4219C79.9212 16.4219 80.3665 16.5482 80.752 16.8008C81.1374 17.0534 81.4382 17.4115 81.6543 17.875C81.8704 18.3385 81.9785 18.8854 81.9785 19.5156C81.9785 20.151 81.8704 20.7018 81.6543 21.168C81.4382 21.6315 81.1387 21.9909 80.7559 22.2461C80.373 22.4987 79.9316 22.625 79.4316 22.625C79.0462 22.625 78.7376 22.5612 78.5059 22.4336C78.2741 22.3034 78.0957 22.1562 77.9707 21.9922C77.8457 21.8255 77.7493 21.6875 77.6816 21.5781H77.5723V22.5H76.6816ZM77.5879 19.5C77.5879 19.9531 77.6543 20.3529 77.7871 20.6992C77.9199 21.043 78.1139 21.3125 78.3691 21.5078C78.6243 21.7005 78.9368 21.7969 79.3066 21.7969C79.6921 21.7969 80.0137 21.6953 80.2715 21.4922C80.5319 21.2865 80.7272 21.0104 80.8574 20.6641C80.9902 20.3151 81.0566 19.9271 81.0566 19.5C81.0566 19.0781 80.9915 18.6979 80.8613 18.3594C80.7337 18.0182 80.5397 17.7487 80.2793 17.5508C80.0215 17.3503 79.6973 17.25 79.3066 17.25C78.9316 17.25 78.6165 17.3451 78.3613 17.5352C78.1061 17.7227 77.9134 17.9857 77.7832 18.3242C77.653 18.6602 77.5879 19.0521 77.5879 19.5ZM85.8262 22.625C85.2845 22.625 84.8092 22.4961 84.4004 22.2383C83.9941 21.9805 83.6764 21.6198 83.4473 21.1562C83.2207 20.6927 83.1074 20.151 83.1074 19.5312C83.1074 18.9062 83.2207 18.3607 83.4473 17.8945C83.6764 17.4284 83.9941 17.0664 84.4004 16.8086C84.8092 16.5508 85.2845 16.4219 85.8262 16.4219C86.3678 16.4219 86.8418 16.5508 87.248 16.8086C87.6569 17.0664 87.9746 17.4284 88.2012 17.8945C88.4303 18.3607 88.5449 18.9062 88.5449 19.5312C88.5449 20.151 88.4303 20.6927 88.2012 21.1562C87.9746 21.6198 87.6569 21.9805 87.248 22.2383C86.8418 22.4961 86.3678 22.625 85.8262 22.625ZM85.8262 21.7969C86.2376 21.7969 86.5762 21.6914 86.8418 21.4805C87.1074 21.2695 87.304 20.9922 87.4316 20.6484C87.5592 20.3047 87.623 19.9323 87.623 19.5312C87.623 19.1302 87.5592 18.7565 87.4316 18.4102C87.304 18.0638 87.1074 17.7839 86.8418 17.5703C86.5762 17.3568 86.2376 17.25 85.8262 17.25C85.4147 17.25 85.0762 17.3568 84.8105 17.5703C84.5449 17.7839 84.3483 18.0638 84.2207 18.4102C84.0931 18.7565 84.0293 19.1302 84.0293 19.5312C84.0293 19.9323 84.0931 20.3047 84.2207 20.6484C84.3483 20.9922 84.5449 21.2695 84.8105 21.4805C85.0762 21.6914 85.4147 21.7969 85.8262 21.7969ZM92.2178 22.625C91.7178 22.625 91.2764 22.4987 90.8936 22.2461C90.5107 21.9909 90.2113 21.6315 89.9951 21.168C89.779 20.7018 89.6709 20.151 89.6709 19.5156C89.6709 18.8854 89.779 18.3385 89.9951 17.875C90.2113 17.4115 90.512 17.0534 90.8975 16.8008C91.2829 16.5482 91.7282 16.4219 92.2334 16.4219C92.624 16.4219 92.9326 16.487 93.1592 16.6172C93.3883 16.7448 93.5628 16.8906 93.6826 17.0547C93.805 17.2161 93.9001 17.349 93.9678 17.4531H94.0459V14.5H94.9678V22.5H94.0771V21.5781H93.9678C93.9001 21.6875 93.8037 21.8255 93.6787 21.9922C93.5537 22.1562 93.3753 22.3034 93.1436 22.4336C92.9118 22.5612 92.6032 22.625 92.2178 22.625ZM92.3428 21.7969C92.7126 21.7969 93.0251 21.7005 93.2803 21.5078C93.5355 21.3125 93.7295 21.043 93.8623 20.6992C93.9951 20.3529 94.0615 19.9531 94.0615 19.5C94.0615 19.0521 93.9964 18.6602 93.8662 18.3242C93.736 17.9857 93.5433 17.7227 93.2881 17.5352C93.0329 17.3451 92.7178 17.25 92.3428 17.25C91.9521 17.25 91.6266 17.3503 91.3662 17.5508C91.1084 17.7487 90.9144 18.0182 90.7842 18.3594C90.6566 18.6979 90.5928 19.0781 90.5928 19.5C90.5928 19.9271 90.6579 20.3151 90.7881 20.6641C90.9209 21.0104 91.1162 21.2865 91.374 21.4922C91.6344 21.6953 91.9574 21.7969 92.3428 21.7969ZM97.3779 24.75C97.2217 24.75 97.0824 24.737 96.96 24.7109C96.8376 24.6875 96.7529 24.6641 96.7061 24.6406L96.9404 23.8281C97.1644 23.8854 97.3623 23.9063 97.5342 23.8906C97.7061 23.875 97.8584 23.7982 97.9912 23.6602C98.1266 23.5247 98.2503 23.3047 98.3623 23L98.5342 22.5313L96.3154 16.5H97.3154L98.9717 21.2812H99.0342L100.69 16.5H101.69L99.1436 23.375C99.029 23.6849 98.887 23.9414 98.7178 24.1445C98.5485 24.3503 98.3519 24.5026 98.1279 24.6016C97.9066 24.7005 97.6566 24.75 97.3779 24.75Z" fill="black"/>
</svg>
