<svg id="svg" width="609" height="1107" viewBox="0 0 609 1107" fill="none" xmlns="http://www.w3.org/2000/svg">
<text  x="50%" y="10%" fill="black" font-size="40" text-anchor="middle">Back-Body</text>
<path d="M42 41.5H566.5V39.5H42V41.5ZM567.5 42.5V1065H569.5V42.5H567.5ZM566.5 1066H42V1068H566.5V1066ZM41 1065V42.5H39V1065H41ZM42 1066C41.4477 1066 41 1065.55 41 1065H39C39 1066.66 40.3431 1068 42 1068V1066ZM567.5 1065C567.5 1065.55 567.052 1066 566.5 1066V1068C568.157 1068 569.5 1066.66 569.5 1065H567.5ZM566.5 41.5C567.052 41.5 567.5 41.9477 567.5 42.5H569.5C569.5 40.8431 568.157 39.5 566.5 39.5V41.5ZM42 39.5C40.3432 39.5 39 40.8431 39 42.5H41C41 41.9477 41.4477 41.5 42 41.5V39.5Z" fill="black" fill-opacity="0.1"/>
<path d="M305.5 140.5L334.5 152L341.5 189H347V205L341.5 216.5H336L333 233.5V253.5L391 294.5L408.5 311L415 340.5L416.5 376L420 420L428.5 446L430 495.5L428.5 525L430 552.5L454.5 572L457 582L468.5 595V601L457 598L445.5 582L447 638L439.5 639.5L438 648L430.5 647L428.5 642H423.5L418.5 624.5L416 631H411L404.5 598L403 551L384 481L377.5 420C375.629 410.491 372.097 392.351 371.975 391.025L370.5 392.5L365 416.5L368.5 465.5L374 513L377.5 545.5L382 601L374 642L365 688L362 729L366.5 803L356 859.5L345.5 888L339.5 920L338 947L343.5 958.5V964.5H313L309.5 961L308 926L315.5 888L313 840.5V783L318 758.5L309 716.5V656L304 607.5L302 585V614L300 648V686.5L296.5 746L295 755L303.5 796L305.5 830L301.5 867.5L300 899.5L306 927V940.5L308 961L303.5 967L248.5 964.5V956.5L273.5 935L267.5 881.5L252.5 824L249 746L242.5 705L229.5 667.5L224 624.5V564.5L231 511L239 484L242 442L235.5 416.5V418L229.5 440L224.5 485L207 548.5V593L201.5 626L199.5 631L195 629.5L193.5 624.5L191 639.5L189.5 642H185.5V631L181 647H176V639.5H168.5L165.5 583.5L149.5 601L140 598L154 577.5L177.5 552.5L182 451L191 425.5L194 364L192.5 325.5L205 300.5L274 253.5L276 231.5L274 216.5H268L263.5 205V189H268V167L279.5 149L305.5 140.5Z" fill="#F1AAAA"/>
<path d="M372 391C371.6 389.8 375.5 409.833 377.5 420L384 481L403 551L404.5 598L411 631H416L418.5 624.5L423.5 642H428.5L430.5 647L438 648L439.5 639.5L447 638L445.5 582L457 598L468.5 601V595L457 582L454.5 572L430 552.5L428.5 525L430 495.5L428.5 446L420 420L416.5 376L415 340.5L408.5 311L391 294.5L333 253.5V233.5L336 216.5H341.5L347 205V189H341.5L334.5 152L305.5 140.5L279.5 149L268 167V189H263.5V205L268 216.5H274L276 231.5L274 253.5L205 300.5L192.5 325.5L194 364L191 425.5L182 451L177.5 552.5L154 577.5L140 598L149.5 601L165.5 583.5L168.5 639.5H176V647H181L185.5 631V642H189.5L191 639.5L193.5 624.5L195 629.5L199.5 631L201.5 626L207 593V548.5L224.5 485L229.5 440L235.5 418V416.5M372 391C372.4 392.2 372.167 373.5 372 364L370.5 392.5M372 391L370.5 392.5M370.5 392.5L365 416.5L368.5 465.5L374 513L377.5 545.5L382 601L374 642L365 688L362 729L366.5 803L356 859.5L345.5 888L339.5 920L338 947L343.5 958.5V964.5H313L309.5 961L308 926L315.5 888L313 840.5V783L318 758.5L309 716.5V656L304 607.5L302 585V614L300 648V686.5L296.5 746L295 755L303.5 796L305.5 830L301.5 867.5L300 899.5L306 927V940.5L308 961L303.5 967L248.5 964.5V956.5L273.5 935L267.5 881.5L252.5 824L249 746L242.5 705L229.5 667.5L224 624.5V564.5L231 511L239 484L242 442L235.5 416.5M235.5 416.5V360.5" stroke="black"/>
<g id="glutes" class="hover">
<path d="M291.5 518L248 491L239 518V532V547L242 567L248 579L254 587.5L267.5 590.5H280.5L291.5 587.5L300 581.5L303.5 574L306 559.5V545L300 529.5L291.5 518Z" fill="#EE2727" />
<path d="M334.5 512.5L365 488L368.5 494V527.5L370 545V559.5L365 570L361 584.5L352.5 590.5H342.5H326.5L309 584.5L306 574L309 550L319 537L326.5 525L334.5 512.5Z" fill="#EE2727" />
<path d="M291.5 518L248 491L239 518V532V547L242 567L248 579L254 587.5L267.5 590.5H280.5L291.5 587.5L300 581.5L303.5 574L306 559.5V545L300 529.5L291.5 518Z" stroke="black"/>
<path d="M334.5 512.5L365 488L368.5 494V527.5L370 545V559.5L365 570L361 584.5L352.5 590.5H342.5H326.5L309 584.5L306 574L309 550L319 537L326.5 525L334.5 512.5Z" stroke="black"/>
</g>
<g id= "legs-back" class="hover">
<path d="M230.5 632.5L233 580.5L238 587L241.5 601L244 624.5L248.5 613.5L254 601L261 596.5H277L292.5 593L295 601V613.5L298 632.5V657L295 676.5V701V718V735.5L290 754L280.5 739.5L265.5 735.5L251 731L248.5 707.5L241.5 688.5L235.5 667L230.5 632.5Z" fill="#EE2727" />
<path d="M314 593L305.5 584.5V606.5L310.5 618.5V635.5V650L314 667L310.5 688.5V701L316 734L321.5 750.5L331 737.5L341.5 735.5H351.5L358.5 727V722V701L362 685L364.5 667L367.5 654.5L371.5 639L375 618.5L377 611.5L378.5 596.5L375 580.5L371.5 596.5L367.5 618.5L364.5 606.5L358.5 596.5H329.5L314 593Z" fill="#EE2727" />
<path d="M230.5 632.5L233 580.5L238 587L241.5 601L244 624.5L248.5 613.5L254 601L261 596.5H277L292.5 593L295 601V613.5L298 632.5V657L295 676.5V701V718V735.5L290 754L280.5 739.5L265.5 735.5L251 731L248.5 707.5L241.5 688.5L235.5 667L230.5 632.5Z" stroke="black"/>
<path d="M314 593L305.5 584.5V606.5L310.5 618.5V635.5V650L314 667L310.5 688.5V701L316 734L321.5 750.5L331 737.5L341.5 735.5H351.5L358.5 727V722V701L362 685L364.5 667L367.5 654.5L371.5 639L375 618.5L377 611.5L378.5 596.5L375 580.5L371.5 596.5L367.5 618.5L364.5 606.5L358.5 596.5H329.5L314 593Z" stroke="black"/>
</g>
<g id="outer-back" class="hover">
<path d="M260.5 307L237 314L232 325.5L237 338L241 352V367.5V385V401.5L244 417L247 428V443.5V459.5V472.5V489L255 491.5L270 498L275 494V484V472.5L277.5 459.5L283 452V443.5L287.5 435.5H295.5L298.5 428L295.5 420L287.5 406L277.5 390L263 360V331.5L260.5 307Z" fill="#EE2727" />
<path d="M348 314L351.5 307L369 310.5L381 314V320V328.5L378.5 343L375 352L371.5 363.5V369.5L370.5 379.5V388L369 398L365.5 406V413.5L363 420V428V443.5L365.5 452L367 461.5L369 472.5V484L365.5 489L363 494H357H351.5L345.5 491.5V479.5V466.5L342.5 456L339.5 448L331 443.5L328.5 435.5L315.5 428V420L321 406V398L328.5 390L335.5 379.5L339.5 373L342.5 367.5L345.5 360V343V325.5L348 314Z" fill="#EE2727" />
<path d="M260.5 307L237 314L232 325.5L237 338L241 352V367.5V385V401.5L244 417L247 428V443.5V459.5V472.5V489L255 491.5L270 498L275 494V484V472.5L277.5 459.5L283 452V443.5L287.5 435.5H295.5L298.5 428L295.5 420L287.5 406L277.5 390L263 360V331.5L260.5 307Z" stroke="black"/>
<path d="M348 314L351.5 307L369 310.5L381 314V320V328.5L378.5 343L375 352L371.5 363.5V369.5L370.5 379.5V388L369 398L365.5 406V413.5L363 420V428V443.5L365.5 452L367 461.5L369 472.5V484L365.5 489L363 494H357H351.5L345.5 491.5V479.5V466.5L342.5 456L339.5 448L331 443.5L328.5 435.5L315.5 428V420L321 406V398L328.5 390L335.5 379.5L339.5 373L342.5 367.5L345.5 360V343V325.5L348 314Z" stroke="black"/>
</g>
<g  id="inner-back" class="hover">
<path d="M278 316.5V298H282.5L291 307L293.5 316.5V332.5V350.5V372.5V388.5L291 404.5L285 394.5L278 385.5L270.5 367.5L267 353.5V342L272.5 326L278 316.5Z" fill="#EE2727" />
<path d="M317 311.5V298L328.5 307L332.5 323L340 337V346V353.5V364L337 367.5L332.5 376.5L328.5 385.5L321.5 391L317 402L311.5 406L313.5 394.5V382V364V350.5L317 329V311.5Z" fill="#EE2727" />
<path d="M278 316.5V298H282.5L291 307L293.5 316.5V332.5V350.5V372.5V388.5L291 404.5L285 394.5L278 385.5L270.5 367.5L267 353.5V342L272.5 326L278 316.5Z" stroke="black"/>
<path d="M317 311.5V298L328.5 307L332.5 323L340 337V346V353.5V364L337 367.5L332.5 376.5L328.5 385.5L321.5 391L317 402L311.5 406L313.5 394.5V382V364V350.5L317 329V311.5Z" stroke="black"/>
</g>
<g id="calfs" class="hover">
<path d="M293 842.5L286 826L281.5 833L278.5 842.5L271.5 845.5H263H259V833L255 799.5V771L253 757.5L255 742.5L259 739L263 742.5L271.5 750L278.5 756L281.5 750L289.5 761.5L293 771L299 788V799.5L303 813.5V826V842.5L299 849.5L293 842.5Z" fill="#EE2727" />
<path d="M345.5 839.5L342.5 826L334 835.5L328.5 845.5L323 849.5H317.5V839.5V831L320 818.5V807V795V783L323 771L328.5 761.5L334 750L338.5 742.5L345.5 753L353 747L357 742.5V750V765L360 778L361.5 791.5V804V818.5V831L360 842.5L353 845.5L345.5 839.5Z" fill="#EE2727" />
<path d="M293 842.5L286 826L281.5 833L278.5 842.5L271.5 845.5H263H259V833L255 799.5V771L253 757.5L255 742.5L259 739L263 742.5L271.5 750L278.5 756L281.5 750L289.5 761.5L293 771L299 788V799.5L303 813.5V826V842.5L299 849.5L293 842.5Z" stroke="black"/>
<path d="M345.5 839.5L342.5 826L334 835.5L328.5 845.5L323 849.5H317.5V839.5V831L320 818.5V807V795V783L323 771L328.5 761.5L334 750L338.5 742.5L345.5 753L353 747L357 742.5V750V765L360 778L361.5 791.5V804V818.5V831L360 842.5L353 845.5L345.5 839.5Z" stroke="black"/>
</g>
<g id="triceps" class="hover">
<path d="M197.5 349L202.5 337H205.5L210.5 343L214 346.5L222 349L229.5 359.5L234.5 363V366.5V372L232 382V398.5V413V421L229.5 430.5L226.5 443.5V455L222 458.5V463.5H218.5V456L216.5 450V443.5V433.5L214 425V415.5V408L210.5 405H205.5V415.5L202.5 425V436V447V455L197.5 450L194 433.5V421V408V390V378.5V372L197.5 359.5V349Z" fill="#EE2727" />
<path d="M405 339.5H393L381 346.5L376 352L374.5 363V378.5V392L376 402L378.5 415.5L381 430.5V443.5L383.5 455L389.5 466.5V458.5L393 450L394 436V423L393 410.5V402L398.5 398.5L401 405L405 410.5V421V433.5V443.5V455L413 447L416 436V425V418V408V394L413 375L408 363V352L405 339.5Z" fill="#EE2727" />
<path d="M197.5 349L202.5 337H205.5L210.5 343L214 346.5L222 349L229.5 359.5L234.5 363V366.5V372L232 382V398.5V413V421L229.5 430.5L226.5 443.5V455L222 458.5V463.5H218.5V456L216.5 450V443.5V433.5L214 425V415.5V408L210.5 405H205.5V415.5L202.5 425V436V447V455L197.5 450L194 433.5V421V408V390V378.5V372L197.5 359.5V349Z" stroke="black"/>
<path d="M405 339.5H393L381 346.5L376 352L374.5 363V378.5V392L376 402L378.5 415.5L381 430.5V443.5L383.5 455L389.5 466.5V458.5L393 450L394 436V423L393 410.5V402L398.5 398.5L401 405L405 410.5V421V433.5V443.5V455L413 447L416 436V425V418V408V394L413 375L408 363V352L405 339.5Z" stroke="black"/>
</g>
<text  x="50%" y="91.5%" fill="black" font-size="45" text-anchor="middle" id="muscle-name"></text>
</svg>
