<svg width="609" height="1115" viewBox="0 0 609 1115" fill="none" xmlns="http://www.w3.org/2000/svg">
<path d="M42 41H566.5V39H42V41ZM567.5 42V1073H569.5V42H567.5ZM566.5 1074H42V1076H566.5V1074ZM41 1073V42H39V1073H41ZM42 1074C41.4477 1074 41 1073.55 41 1073H39C39 1074.66 40.3431 1076 42 1076V1074ZM567.5 1073C567.5 1073.55 567.052 1074 566.5 1074V1076C568.157 1076 569.5 1074.66 569.5 1073H567.5ZM566.5 41C567.052 41 567.5 41.4477 567.5 42H569.5C569.5 40.3431 568.157 39 566.5 39V41ZM42 39C40.3431 39 39 40.3432 39 42H41C41 41.4477 41.4477 41 42 41V39Z" fill="black" fill-opacity="0.1"/>
<path d="M323.5 147L304.5 141.5L303 140L273 159L269 176V190.5H262V198.5L264 206L267 213.5L275 219L279.5 242.5L277.5 256.5L220 293.5L198 320.5L200 356.5L194 417L183 455L178.5 555.5L152 586.5L140 599.5L150.5 602.5L164 586V636L167.5 641L171.5 639.5V647L179 648.5L182 636V644.5H188L192 624.5L194 633.5H199.5L207 599.5V548.5L231 473.5V442.5L235.5 411L241.5 356.5L246.5 414L241.5 482L232.5 548.5L230.5 615L246.5 703.5L245 814.5L267.5 895L271.5 926.5L272.5 947.5L267.5 962.5L266.5 975H310.5V970L306.5 952L303.5 926L296.5 890L299 834.5L300 796.5L296.5 783.5V756L302.5 673L307 578.5L310 581L312.5 578.5V673L318 756L306.5 796.5L309 835.5L310.5 908L306.5 936.5L314 961.5L326.5 973H360V966.5L338.5 939V926V913L360 823L365.5 722L373 700L391 609.5L386 550.5L373.5 494.5L372 442.5L386 356.5L380 411L386 473.5L405 554L403.5 593.5L407.5 616.5L410.5 632H415.5L417 620.5L419.5 641L421.5 644.5H425L428 641V648.5H433L436.5 639.5L440 641L445.5 638V584L459 601L468.5 602.5V597.5L457 586V577L433 554L431.5 456.5L424 432L418 315.5L401.5 293.5L337 249.5V219L344.5 213.5L348 206L350 198.5L348 190.5H342V176L338.5 159L323.5 147Z" fill="#F1AAAA" stroke="black"/>
<path class= "hover" fill-rule="evenodd" clip-rule="evenodd" d="M290.095 306.5H262.376C257.462 306.5 253.276 310.07 252.501 314.923L249.625 332.932C249.451 334.025 249.459 335.138 249.649 336.228L253.133 356.201C253.589 358.819 255.07 361.148 257.247 362.673L265.781 368.651C267.906 370.138 270.525 370.743 273.086 370.336L289.726 367.694C290.909 367.507 292.049 367.108 293.091 366.517L300.112 362.536C302.628 361.11 304.403 358.664 304.979 355.831L306.794 346.914C307.069 345.563 307.061 344.17 306.772 342.822L304.072 330.231L299.762 313.942C298.602 309.556 294.633 306.5 290.095 306.5ZM332.847 306.5H360.566C365.48 306.5 369.666 310.07 370.44 314.923L373.316 332.932C373.491 334.025 373.483 335.138 373.293 336.228L369.809 356.201C369.352 358.819 367.872 361.148 365.694 362.673L357.16 368.651C355.036 370.138 352.417 370.743 349.855 370.336L333.215 367.694C332.032 367.507 330.893 367.108 329.851 366.517L322.829 362.536C320.314 361.11 318.539 358.664 317.962 355.831L316.148 346.914C315.873 345.563 315.88 344.17 316.169 342.822L318.87 330.231L323.179 313.942C324.34 309.556 328.309 306.5 332.847 306.5Z" fill="#EE2727"/>
<g id="abdome" class="hover">
<path d="M307 397.5L272.5 411L272 398L273.5 391.5L276.5 386.5L282.5 382.5L295 377.5L302.5 374.5L307 376L308.5 382.5V393L307 397.5Z" fill="#EE2727"/>
<path d="M313.5 396L315 374.5H324.5L329.5 376L334.5 377.5L342.5 380L344.5 381.5L347.5 389L349 393V400V412.5L346.5 416.5L341 414L327.5 405L313.5 396Z" fill="#EE2727"/>
<path d="M281.5 409L272.5 416.5L271 421V429.5H305.5L307 427L308.5 418.5V404L292.5 405L281.5 409Z" fill="#EE2727"/>
<path d="M311.5 409L313.5 404L324.5 409L329 411.5L334.5 414L341 418.5L346 421.5L346.5 427V434.5H341L330 432.5L320 430.5L310.5 428.5L311.5 409Z" fill="#EE2727"/>
<path d="M304.5 431.5L271 432.5L270 434.5V443V453L275 459H283H294.5H304.5L307.5 456.5V435.5L304.5 431.5Z" fill="#EE2727"/>
<path d="M323 433H312V439.5L311.5 447V451L313.5 455L316 459H321.5H326.5H331.5H342.5L344.5 456.5L344 440L341 439.5L334.5 437.5L329 435.5L323 433Z" fill="#EE2727"/>
<path d="M304.5 463H276.5H275V472L278 483.5C279 487.5 281.1 495.1 281.5 493.5C281.9 491.9 285 502.833 286.5 508.5L289.5 521L295 536.5L301 553L304.5 562L309 562.5L315 563L320.5 562L322.5 559L326.5 548.5L332 536L336.5 523L340 511.5L342.5 501L344 491.5L344.5 484.5V475.5L342.5 469.5L340 463H333.5H325.5H319L317.5 465.5L315 468H308.5H305.5L304.5 463Z" fill="#EE2727"/>
<path d="M263 386.5L254 389L249.5 396L252 400H258.5H265.5L269.5 397.5V388L263 386.5Z" fill="#EE2727"/>
<path d="M261 401H249L247 406.5L249 411L252 412.5L258.5 416.5H263L267.5 414V406.5L265.5 401H261Z" fill="#EE2727"/>
<path d="M247 412.5L255 416L263 418.5L265.5 421.5L264.5 425V427V430.5V434.5V437.5H261L258.5 439.5L259 441L263 447L264.5 453L265.5 456.5L264.5 459L260.5 462L261 463L267.5 469.5V475.5L271 483.5L270 491.5L271 501L269.5 508.5L260.5 501L252 493.5L244.5 490L242 486L244.5 451L247 428.5V412.5Z" fill="#EE2727"/>
<path d="M354.5 384L364 386.5L370.5 389L375 388L378 384V388L375 391.5L370.5 397.5L370.1 398L372.5 402L375 404V406.5V411L372.5 414L373.5 418.5V424L370.5 429.5V437.5L367.5 445.5V462L367.135 462.122L370.5 490L367.5 493.5L364 498L360 502.5L359 507.5L354.5 508.5L352 507.5L351 504L349 469.5L355.5 463.5L351 463V453L357.5 445.5H352.5V441V430.5L357.5 425H352.5V418.5L354.5 411.5L357.5 402L354.5 396V384Z" fill="#EE2727"/>
<path d="M258.5 439.5L261 437.5H264.5V434.5V430.5V427V425L265.5 421.5L263 418.5L255 416L247 412.5V428.5M258.5 439.5L254 437.5L249 432.5L247 428.5M258.5 439.5L259 441L263 447L264.5 453L265.5 456.5L264.5 459L260.5 462M247 428.5L244.5 451M260.5 462L254 459L249 455L244.5 451M260.5 462L261 463L267.5 469.5V475.5L271 483.5L270 491.5L271 501L269.5 508.5L260.5 501L252 493.5L244.5 490L242 486L244.5 451M357.5 402L361.5 401L368.5 400L370.1 398M357.5 402L354.5 396V384L364 386.5L370.5 389L375 388L378 384V388L375 391.5L370.5 397.5L370.1 398M357.5 402L354.5 411.5L352.5 418.5V425H357.5M357.5 425L363 421L367.5 419L370.5 416L372.5 414M357.5 425L352.5 430.5V441V445.5H357.5M372.5 414L375 411V406.5V404L372.5 402L370.1 398M372.5 414L373.5 418.5V424L370.5 429.5V437.5M357.5 445.5L364 441L370.5 437.5M357.5 445.5L351 453V463L355.5 463.5M370.5 437.5L367.5 445.5V462L363 463.5H355.5M355.5 463.5L349 469.5L351 504L352 507.5L354.5 508.5L359 507.5L360 502.5L364 498L367.5 493.5L370.5 490L367 461M272.5 411L307 397.5L308.5 393V382.5L307 376L302.5 374.5L295 377.5L282.5 382.5L276.5 386.5L273.5 391.5L272 398L272.5 411ZM315 374.5L313.5 396L327.5 405L341 414L346.5 416.5L349 412.5V400V393L347.5 389L344.5 381.5L342.5 380L334.5 377.5L329.5 376L324.5 374.5H315ZM272.5 416.5L281.5 409L292.5 405L308.5 404V418.5L307 427L305.5 429.5H271V421L272.5 416.5ZM313.5 404L311.5 409L310.5 428.5L320 430.5L330 432.5L341 434.5H346.5V427L346 421.5L341 418.5L334.5 414L329 411.5L324.5 409L313.5 404ZM271 432.5L304.5 431.5L307.5 435.5V456.5L304.5 459H294.5H283H275L270 453V443V434.5L271 432.5ZM312 433H323L329 435.5L334.5 437.5L341 439.5L344 440L344.5 456.5L342.5 459H331.5H326.5H321.5H316L313.5 455L311.5 451V447L312 439.5V433ZM276.5 463H304.5L305.5 468H308.5H315L317.5 465.5L319 463H325.5H333.5H340L342.5 469.5L344.5 475.5V484.5L344 491.5L342.5 501L340 511.5L336.5 523L332 536L326.5 548.5L322.5 559L320.5 562L315 563L309 562.5L304.5 562L301 553L295 536.5L289.5 521L286.5 508.5C285 502.833 281.9 491.9 281.5 493.5C281.1 495.1 279 487.5 278 483.5L275 472V463H276.5ZM254 389L263 386.5L269.5 388V397.5L265.5 400H258.5H252L249.5 396L254 389ZM249 401H261H265.5L267.5 406.5V414L263 416.5H258.5L252 412.5L249 411L247 406.5L249 401Z" stroke="black"/>
</g>
<g id="biceps" class="hover"> 
<path d="M224 439L202.5 459.5L197.5 455.5V439V425L202.5 402.5L214.5 383.5L230 362.5L241 344.5V380L238 415.5L224 439Z" fill="#EE2727"/>
<path d="M412 393.5L390.5 360L382.5 419L395.5 443L404.5 452L414.5 459.5L422.5 443L420 425L412 393.5Z" fill="#EE2727"/>
<path d="M224 439L202.5 459.5L197.5 455.5V439V425L202.5 402.5L214.5 383.5L230 362.5L241 344.5V380L238 415.5L224 439Z" stroke="black"/>
<path d="M412 393.5L390.5 360L382.5 419L395.5 443L404.5 452L414.5 459.5L422.5 443L420 425L412 393.5Z" stroke="black"/>
</g>
<g id="shoulders" class="hover">
<path d="M207.5 316.003L223.87 297.5L247.463 300.584L244.093 321.731L238.315 330.101L230.13 343.759L207.5 360.5V336.269V316.003Z" fill="#EE2727"/>
<path d="M399.13 297.5H373.611V305.43L376.981 319.528L380.352 330.101L383.722 336.269L389.019 341.115L395.278 347.283L402.019 353.01L415.5 356.094V343.759V321.731L410.685 310.717L399.13 297.5Z" fill="#EE2727"/>
<path d="M207.5 316.003L223.87 297.5L247.463 300.584L244.093 321.731L238.315 330.101L230.13 343.759L207.5 360.5V336.269V316.003Z" stroke="black"/>
<path d="M399.13 297.5H373.611V305.43L376.981 319.528L380.352 330.101L383.722 336.269L389.019 341.115L395.278 347.283L402.019 353.01L415.5 356.094V343.759V321.731L410.685 310.717L399.13 297.5Z" stroke="black"/>
</g>
<g id="front-leg" class="hover">
<path d="M272.045 533.147L244.955 513.5V523.323L240.678 533.147V555.132L236.876 574.311L234.5 590.683V608.926V622.024L236.876 636.993L240.678 652.429V672.076L244.955 690.787L249.233 712.772V724.467L253.51 731.951L261.114 735.226L272.045 738.5H279.649L289.629 735.226L294.381 731.951V712.772V685.641L297.233 663.188V650.09L301.035 625.766V608.926V595.361L297.233 585.07L289.629 568.698L279.649 548.583L272.045 533.147Z" fill="#E92B2B"/>
<path d="M368.995 533.147L365.193 513.5L357.114 523.323L350.46 533.147L344.282 541.567L336.203 553.729L330.975 565.423L325.272 571.036V579.924L320.045 590.683V608.926V622.024V632.315L317.668 640.267V650.09V663.188L316.243 680.964L314.342 696.4L312.441 709.966L314.342 721.192L317.668 726.806L325.272 731.951H334.302H344.282L350.46 726.806L357.114 721.192L362.342 709.966L365.193 696.4L368.995 682.835L372.797 666.463L375.173 652.429L378.5 644.009V632.315V618.282V602.377V585.07L375.173 568.698L372.797 552.793L368.995 533.147Z" fill="#E92B2B"/>
<path d="M272.045 533.147L244.955 513.5V523.323L240.678 533.147V555.132L236.876 574.311L234.5 590.683V608.926V622.024L236.876 636.993L240.678 652.429V672.076L244.955 690.787L249.233 712.772V724.467L253.51 731.951L261.114 735.226L272.045 738.5H279.649L289.629 735.226L294.381 731.951V712.772V685.641L297.233 663.188V650.09L301.035 625.766V608.926V595.361L297.233 585.07L289.629 568.698L279.649 548.583L272.045 533.147Z" stroke="black"/>
<path d="M368.995 533.147L365.193 513.5L357.114 523.323L350.46 533.147L344.282 541.567L336.203 553.729L330.975 565.423L325.272 571.036V579.924L320.045 590.683V608.926V622.024V632.315L317.668 640.267V650.09V663.188L316.243 680.964L314.342 696.4L312.441 709.966L314.342 721.192L317.668 726.806L325.272 731.951H334.302H344.282L350.46 726.806L357.114 721.192L362.342 709.966L365.193 696.4L368.995 682.835L372.797 666.463L375.173 652.429L378.5 644.009V632.315V618.282V602.377V585.07L375.173 568.698L372.797 552.793L368.995 533.147Z" stroke="black"/>
</g>
<rect x="40" y="4" width="70.8203" height="30" rx="3" fill="white"/>
<rect x="40.5" y="4.5" width="69.8203" height="29" rx="2.5" stroke="black" stroke-opacity="0.2"/>
<path d="M46.9688 22V14H51.7656V14.8594H47.9375V17.5625H51.4063V18.4219H47.9375V22H46.9688ZM53.2354 22V16H54.126V16.9062H54.1885C54.2979 16.6094 54.4958 16.3685 54.7822 16.1836C55.0687 15.9987 55.3916 15.9062 55.751 15.9062C55.8187 15.9062 55.9033 15.9076 56.0049 15.9102C56.1064 15.9128 56.1833 15.9167 56.2354 15.9219V16.8594C56.2041 16.8516 56.1325 16.8398 56.0205 16.8242C55.9111 16.806 55.7952 16.7969 55.6729 16.7969C55.3812 16.7969 55.1208 16.8581 54.8916 16.9805C54.665 17.1003 54.4854 17.2669 54.3525 17.4805C54.2223 17.6914 54.1572 17.9323 54.1572 18.2031V22H53.2354ZM59.583 22.125C59.0413 22.125 58.5661 21.9961 58.1572 21.7383C57.751 21.4805 57.4333 21.1198 57.2041 20.6562C56.9775 20.1927 56.8643 19.651 56.8643 19.0312C56.8643 18.4062 56.9775 17.8607 57.2041 17.3945C57.4333 16.9284 57.751 16.5664 58.1572 16.3086C58.5661 16.0508 59.0413 15.9219 59.583 15.9219C60.1247 15.9219 60.5986 16.0508 61.0049 16.3086C61.4137 16.5664 61.7314 16.9284 61.958 17.3945C62.1872 17.8607 62.3018 18.4062 62.3018 19.0312C62.3018 19.651 62.1872 20.1927 61.958 20.6562C61.7314 21.1198 61.4137 21.4805 61.0049 21.7383C60.5986 21.9961 60.1247 22.125 59.583 22.125ZM59.583 21.2969C59.9945 21.2969 60.333 21.1914 60.5986 20.9805C60.8643 20.7695 61.0609 20.4922 61.1885 20.1484C61.3161 19.8047 61.3799 19.4323 61.3799 19.0312C61.3799 18.6302 61.3161 18.2565 61.1885 17.9102C61.0609 17.5638 60.8643 17.2839 60.5986 17.0703C60.333 16.8568 59.9945 16.75 59.583 16.75C59.1715 16.75 58.833 16.8568 58.5674 17.0703C58.3018 17.2839 58.1051 17.5638 57.9775 17.9102C57.8499 18.2565 57.7861 18.6302 57.7861 19.0312C57.7861 19.4323 57.8499 19.8047 57.9775 20.1484C58.1051 20.4922 58.3018 20.7695 58.5674 20.9805C58.833 21.1914 59.1715 21.2969 59.583 21.2969ZM64.6309 18.3906V22H63.709V16H64.5996V16.9375H64.6777C64.8184 16.6328 65.0319 16.388 65.3184 16.2031C65.6048 16.0156 65.9746 15.9219 66.4277 15.9219C66.834 15.9219 67.1895 16.0052 67.4941 16.1719C67.7988 16.3359 68.0358 16.5859 68.2051 16.9219C68.3743 17.2552 68.459 17.6771 68.459 18.1875V22H67.5371V18.25C67.5371 17.7786 67.4147 17.4115 67.1699 17.1484C66.9251 16.8828 66.5892 16.75 66.1621 16.75C65.8678 16.75 65.6048 16.8138 65.373 16.9414C65.1439 17.069 64.9629 17.2552 64.8301 17.5C64.6973 17.7448 64.6309 18.0417 64.6309 18.3906ZM72.7529 16V16.7812H69.6436V16H72.7529ZM70.5498 14.5625H71.4717V20.2812C71.4717 20.5417 71.5094 20.737 71.585 20.8672C71.6631 20.9948 71.762 21.0807 71.8818 21.125C72.0042 21.1667 72.1331 21.1875 72.2686 21.1875C72.3701 21.1875 72.4535 21.1823 72.5186 21.1719C72.5837 21.1589 72.6357 21.1484 72.6748 21.1406L72.8623 21.9687C72.7998 21.9922 72.7126 22.0156 72.6006 22.0391C72.4886 22.0651 72.3467 22.0781 72.1748 22.0781C71.9144 22.0781 71.6592 22.0221 71.4092 21.9102C71.1618 21.7982 70.9561 21.6276 70.792 21.3984C70.6305 21.1693 70.5498 20.8802 70.5498 20.5312V14.5625ZM77.3623 18.1406V19H73.8623V18.1406H77.3623ZM79.1094 22V14H81.9063C82.4635 14 82.9232 14.0964 83.2852 14.2891C83.6471 14.4792 83.9167 14.7357 84.0938 15.0586C84.2708 15.3789 84.3594 15.7344 84.3594 16.125C84.3594 16.4687 84.2982 16.7526 84.1758 16.9766C84.056 17.2005 83.8971 17.3776 83.6992 17.5078C83.5039 17.638 83.2917 17.7344 83.0625 17.7969V17.875C83.3073 17.8906 83.5534 17.9766 83.8008 18.1328C84.0482 18.2891 84.2552 18.513 84.4219 18.8047C84.5885 19.0964 84.6719 19.4531 84.6719 19.875C84.6719 20.276 84.5807 20.6367 84.3984 20.957C84.2161 21.2773 83.9284 21.5312 83.5352 21.7187C83.1419 21.9062 82.6302 22 82 22H79.1094ZM80.0781 21.1406H82C82.6328 21.1406 83.082 21.0182 83.3477 20.7734C83.6159 20.526 83.75 20.2266 83.75 19.875C83.75 19.6042 83.681 19.3542 83.543 19.125C83.4049 18.8932 83.2083 18.7083 82.9531 18.5703C82.6979 18.4297 82.3958 18.3594 82.0469 18.3594H80.0781V21.1406ZM80.0781 17.5156H81.875C82.1667 17.5156 82.4297 17.4583 82.6641 17.3437C82.901 17.2292 83.0885 17.0677 83.2266 16.8594C83.3672 16.651 83.4375 16.4062 83.4375 16.125C83.4375 15.7734 83.3151 15.4753 83.0703 15.2305C82.8255 14.9831 82.4375 14.8594 81.9063 14.8594H80.0781V17.5156ZM88.5762 22.125C88.0345 22.125 87.5592 21.9961 87.1504 21.7383C86.7441 21.4805 86.4264 21.1198 86.1973 20.6562C85.9707 20.1927 85.8574 19.651 85.8574 19.0312C85.8574 18.4062 85.9707 17.8607 86.1973 17.3945C86.4264 16.9284 86.7441 16.5664 87.1504 16.3086C87.5592 16.0508 88.0345 15.9219 88.5762 15.9219C89.1178 15.9219 89.5918 16.0508 89.998 16.3086C90.4069 16.5664 90.7246 16.9284 90.9512 17.3945C91.1803 17.8607 91.2949 18.4062 91.2949 19.0312C91.2949 19.651 91.1803 20.1927 90.9512 20.6562C90.7246 21.1198 90.4069 21.4805 89.998 21.7383C89.5918 21.9961 89.1178 22.125 88.5762 22.125ZM88.5762 21.2969C88.9876 21.2969 89.3262 21.1914 89.5918 20.9805C89.8574 20.7695 90.054 20.4922 90.1816 20.1484C90.3092 19.8047 90.373 19.4323 90.373 19.0312C90.373 18.6302 90.3092 18.2565 90.1816 17.9102C90.054 17.5638 89.8574 17.2839 89.5918 17.0703C89.3262 16.8568 88.9876 16.75 88.5762 16.75C88.1647 16.75 87.8262 16.8568 87.5605 17.0703C87.2949 17.2839 87.0983 17.5638 86.9707 17.9102C86.8431 18.2565 86.7793 18.6302 86.7793 19.0312C86.7793 19.4323 86.8431 19.8047 86.9707 20.1484C87.0983 20.4922 87.2949 20.7695 87.5605 20.9805C87.8262 21.1914 88.1647 21.2969 88.5762 21.2969ZM94.9678 22.125C94.4678 22.125 94.0264 21.9987 93.6436 21.7461C93.2607 21.4909 92.9613 21.1315 92.7451 20.668C92.529 20.2018 92.4209 19.651 92.4209 19.0156C92.4209 18.3854 92.529 17.8385 92.7451 17.375C92.9613 16.9115 93.262 16.5534 93.6475 16.3008C94.0329 16.0482 94.4782 15.9219 94.9834 15.9219C95.374 15.9219 95.6826 15.987 95.9092 16.1172C96.1383 16.2448 96.3128 16.3906 96.4326 16.5547C96.555 16.7161 96.6501 16.849 96.7178 16.9531H96.7959V14H97.7178V22H96.8271V21.0781H96.7178C96.6501 21.1875 96.5537 21.3255 96.4287 21.4922C96.3037 21.6562 96.1253 21.8034 95.8936 21.9336C95.6618 22.0612 95.3532 22.125 94.9678 22.125ZM95.0928 21.2969C95.4626 21.2969 95.7751 21.2005 96.0303 21.0078C96.2855 20.8125 96.4795 20.543 96.6123 20.1992C96.7451 19.8529 96.8115 19.4531 96.8115 19C96.8115 18.5521 96.7464 18.1602 96.6162 17.8242C96.486 17.4857 96.2933 17.2227 96.0381 17.0352C95.7829 16.8451 95.4678 16.75 95.0928 16.75C94.7021 16.75 94.3766 16.8503 94.1162 17.0508C93.8584 17.2487 93.6644 17.5182 93.5342 17.8594C93.4066 18.1979 93.3428 18.5781 93.3428 19C93.3428 19.4271 93.4079 19.8151 93.5381 20.1641C93.6709 20.5104 93.8662 20.7865 94.124 20.9922C94.3844 21.1953 94.7074 21.2969 95.0928 21.2969ZM100.128 24.25C99.9717 24.25 99.8324 24.237 99.71 24.2109C99.5876 24.1875 99.5029 24.1641 99.4561 24.1406L99.6904 23.3281C99.9144 23.3854 100.112 23.4063 100.284 23.3906C100.456 23.375 100.608 23.2982 100.741 23.1602C100.877 23.0247 101 22.8047 101.112 22.5L101.284 22.0313L99.0654 16H100.065L101.722 20.7812H101.784L103.44 16H104.44L101.894 22.875C101.779 23.1849 101.637 23.4414 101.468 23.6445C101.299 23.8503 101.102 24.0026 100.878 24.1016C100.657 24.2005 100.407 24.25 100.128 24.25Z" fill="black"/>
</svg>
